# xmcd CD database file
#
# Track frame offsets:
#	150
#	13763
#	28431
#	44604
#	60074
#	75152
#	91935
#	109138
#	122494
#	139547
#	156560
#	167345
#	184671
#	198839
#
# Disc length: 2911 seconds
#
# Revision: 2
# Processed by: cddbd v1.4PL0 Copyright (c) Steve Scherf et al.
# Submitted via: CDex 1.50Beta7
#
DISCID=a80b5d0e
DTITLE=Paul Cardall - The looking Glass
DYEAR=1999
DGENRE=New Age
TTITLE0=Bethel
TTITLE1=The Release
TTITLE2=The dream
TTITLE3=Without You
TTITLE4=Through Her Eyes
TTITLE5=The Woman in the Snow
TTITLE6=A Kiss of the Sunlight
TTITLE7=Hunter's Heart
TTITLE8=Quaye's Theme
TTITLE9=The Looking Glass
TTITLE10=Faith in Spring
TTITLE11=Strangers
TTITLE12=Nostalgia
TTITLE13=Redeeming Love
EXTD=Original Piano Compositions for Richard Paul Evans - Composed and Performed by: Paul Cardall YEAR: 1999
EXTT0=
EXTT1=
EXTT2=
EXTT3=
EXTT4=
EXTT5=
EXTT6=
EXTT7=
EXTT8=
EXTT9=
EXTT10=
EXTT11=
EXTT12=
EXTT13=
PLAYORDER=
